<svg version="1.2" xmlns="http://www.w3.org/2000/svg" viewBox="0 0 500 500" width="500" height="500">
	<style>
		.s0 { fill: #000000 } 
		.s1 { fill: #ffffff } 
	</style>
	<path id="Base" class="s0" d="m238.01 0.45c-0.45 0.05-2.11 0.2-3.69 0.33-1.59 0.14-5.02 0.55-7.62 0.92-2.6 0.37-6.59 1.05-8.88 1.51-2.28 0.46-5.81 1.25-7.84 1.75-2.03 0.5-5.15 1.33-6.92 1.84-1.78 0.51-5.46 1.66-8.19 2.55-2.73 0.9-6.73 2.28-8.88 3.07-2.16 0.8-5.74 2.18-7.96 3.07-2.23 0.89-5.75 2.34-7.85 3.23-2.09 0.89-5.78 2.5-8.19 3.57-2.41 1.07-6.66 3.01-9.46 4.31-2.79 1.3-8.65 4.11-13.03 6.24-4.38 2.13-10.04 4.78-12.57 5.88-2.54 1.11-6.23 2.67-8.19 3.47-1.97 0.8-5.29 2.09-7.39 2.88-2.09 0.78-6.09 2.18-8.88 3.11-2.79 0.94-7.05 2.27-9.46 2.97-2.41 0.69-6.25 1.73-8.53 2.3-2.29 0.57-5.87 1.41-7.96 1.85-2.09 0.45-5.93 1.18-8.54 1.63-2.6 0.44-6.28 1.01-8.19 1.26-1.9 0.25-5.17 0.62-7.26 0.82-2.1 0.19-5.68 0.46-7.96 0.59-2.29 0.12-6.36 0.23-9.06 0.23h-4.9c-0.17 1.88-0.33 4.65-0.46 7.38-0.13 2.73-0.34 7.5-0.46 10.61-0.13 3.11-0.34 9.5-0.46 14.19-0.13 4.7-0.23 13.67-0.23 19.96 0 6.28 0.1 15.1 0.22 19.61 0.13 4.5 0.34 10.63 0.47 13.61 0.13 2.98 0.4 7.96 0.59 11.07 0.18 3.11 0.54 8.25 0.8 11.42 0.25 3.17 0.67 7.95 0.93 10.61 0.26 2.67 0.73 7.08 1.04 9.81 0.31 2.73 0.83 6.93 1.15 9.34 0.32 2.41 0.94 6.82 1.39 9.8 0.44 2.99 1.27 8.13 1.85 11.42 0.57 3.3 1.51 8.39 2.08 11.31 0.57 2.92 1.55 7.61 2.18 10.44 0.63 2.82 1.7 7.44 2.39 10.26 0.68 2.83 2.03 7.99 2.98 11.48 0.96 3.49 2.27 8.11 2.91 10.27 0.65 2.15 2.12 6.77 3.27 10.26 1.15 3.49 2.93 8.63 3.94 11.42 1.02 2.79 2.63 7.05 3.58 9.46 0.95 2.41 2.59 6.41 3.64 8.88 1.06 2.48 2.7 6.21 3.65 8.31 0.95 2.09 2.7 5.83 3.89 8.3 1.2 2.48 3.3 6.63 4.68 9.23 1.37 2.6 3.43 6.39 4.57 8.42 1.14 2.03 3.07 5.35 4.28 7.38 1.21 2.03 3.64 5.98 5.41 8.77 1.77 2.79 4.41 6.84 5.88 9 1.47 2.15 3.76 5.43 5.09 7.26 1.33 1.84 3.4 4.65 4.62 6.23 1.21 1.59 3.24 4.18 4.51 5.77 1.26 1.59 3.34 4.13 4.61 5.65 1.27 1.53 3.4 4.02 4.74 5.54 1.33 1.52 3.98 4.48 5.88 6.57 1.9 2.1 6.42 6.77 10.04 10.4 3.62 3.61 8.4 8.24 10.62 10.27 2.22 2.03 5.34 4.83 6.92 6.22 1.59 1.39 4.19 3.63 5.77 4.97 1.59 1.34 5.01 4.15 7.61 6.25 2.6 2.09 6.86 5.41 9.46 7.38 2.6 1.97 6.91 5.14 9.58 7.04 2.66 1.91 7.23 5.08 10.15 7.05 2.91 1.97 6.81 4.54 8.65 5.72 1.84 1.17 5.05 3.19 7.15 4.48 2.09 1.3 5.52 3.37 7.61 4.62 2.1 1.25 6.04 3.53 8.77 5.08 2.73 1.55 6.98 3.91 9.46 5.24 2.47 1.33 6.24 3.32 8.36 4.42l3.86 1.99c2.96-1.47 5.58-2.84 7.73-3.98 2.16-1.15 5.54-2.97 7.5-4.05 1.97-1.08 5.96-3.33 8.88-5.01 2.92-1.67 7.33-4.27 9.81-5.76 2.47-1.5 6.47-3.97 8.88-5.49 2.41-1.53 6.41-4.13 8.88-5.77 2.47-1.65 6.06-4.09 7.96-5.43 1.9-1.33 4.76-3.35 6.34-4.5 1.59-1.14 5.01-3.68 7.62-5.65 2.6-1.97 6.28-4.83 8.19-6.35 1.9-1.52 5.22-4.23 7.38-6.03 2.16-1.8 5.32-4.51 7.04-6.01 1.71-1.5 4.93-4.39 7.15-6.43 2.22-2.03 6.95-6.6 10.5-10.16 3.56-3.56 8.14-8.28 10.17-10.51 2.02-2.22 4.72-5.23 5.99-6.69 1.26-1.46 3.13-3.64 4.15-4.84 1.02-1.2 3.31-4.01 5.08-6.23 1.77-2.22 4.16-5.28 5.31-6.8 1.15-1.53 3.39-4.59 4.97-6.81 1.59-2.22 3.93-5.59 5.2-7.5 1.27-1.9 3.55-5.43 5.07-7.84 1.52-2.41 3.91-6.31 5.31-8.65 1.4-2.35 3.63-6.24 4.97-8.65 1.33-2.42 3.57-6.62 4.98-9.35 1.4-2.73 3.5-6.98 4.67-9.46 1.16-2.47 2.95-6.36 3.96-8.65 1.01-2.28 2.76-6.38 3.88-9.11 1.12-2.73 2.92-7.3 3.99-10.15 1.07-2.86 2.63-7.16 3.47-9.57 0.84-2.42 2.21-6.51 3.04-9.12 0.83-2.6 2.4-7.79 3.48-11.53 1.08-3.74 2.73-9.82 3.66-13.5 0.93-3.68 2.32-9.49 3.08-12.92 0.77-3.42 1.92-8.92 2.57-12.22 0.65-3.3 1.68-9.01 2.3-12.69 0.63-3.68 1.6-10.01 2.17-14.07 0.58-4.07 1.36-10.09 1.74-13.39 0.38-3.29 0.96-8.74 1.28-12.11 0.32-3.36 0.79-8.86 1.04-12.22 0.25-3.37 0.61-8.97 0.8-12.46 0.2-3.49 0.48-9.41 0.64-13.15 0.18-4.2 0.29-14.71 0.29-27.45 0-12.43-0.12-23.41-0.29-27.57-0.16-3.81-0.44-10.4-0.63-14.65-0.19-4.25-0.4-8.15-0.47-8.65l-0.11-0.93c-11.53-0.25-16.69-0.48-18.91-0.67-2.22-0.18-5.02-0.45-6.23-0.59-1.2-0.14-4.06-0.52-6.34-0.84-2.29-0.32-6.08-0.93-8.42-1.37-2.35-0.43-5.93-1.15-7.96-1.6-2.03-0.45-5.46-1.28-7.61-1.84-2.16-0.56-5.22-1.4-6.81-1.86-1.59-0.46-4.39-1.31-6.23-1.89-1.84-0.58-5.32-1.76-7.73-2.61-2.41-0.85-6.04-2.19-8.07-2.98-2.03-0.79-5.66-2.26-8.08-3.28-2.41-1.02-6.3-2.74-8.65-3.82-2.34-1.08-5.98-2.82-8.07-3.87-2.1-1.05-6.4-3.12-9.58-4.61-3.17-1.49-7.94-3.69-10.61-4.89-2.66-1.21-6.66-2.97-8.88-3.92-2.22-0.95-6.11-2.56-8.65-3.58-2.54-1.02-6.02-2.37-7.73-3.01-1.71-0.64-5.24-1.87-7.84-2.75-2.6-0.88-6.65-2.16-9-2.85-2.35-0.68-5.98-1.67-8.07-2.18-2.1-0.52-5.58-1.3-7.73-1.73-2.16-0.43-5.64-1.05-7.73-1.37-2.1-0.31-5.36-0.75-7.27-0.97-2.76-0.31-6.03-0.4-16.15-0.44-6.98-0.03-13.05-0.02-13.49 0.03z"/>
	<path id="Estrela" class="s1" d="m235.33 136.94l-14.79 45.74-96.76 0.23c60.65 43.98 78.25 56.77 78.25 56.81-0.01 0.03-6.71 20.63-14.9 45.79-8.19 25.15-14.86 45.81-14.82 45.9 0.03 0.1 17.56-12.6 38.94-28.2 21.38-15.61 39-28.32 39.16-28.26 0.16 0.07 17.68 12.81 38.93 28.32 21.26 15.51 38.75 28.23 38.88 28.26 0.12 0.04-0.3-1.47-0.93-3.34-0.63-1.87-7.38-22.56-15-45.97-12.88-39.58-13.82-42.58-13.44-42.86 0.23-0.17 17.84-12.94 39.14-28.38l38.74-28.07-96.78-0.23c-22.84-70.9-29.55-91.48-29.65-91.48-0.1 0-6.84 20.58-14.97 45.74z"/>
	<path id="Borda" fill-rule="evenodd" class="s1" d="m252.08 22.59c4.19 0.05 8.78 0.23 10.84 0.44 1.97 0.2 5.4 0.62 7.62 0.95 2.22 0.32 5.8 0.94 7.96 1.38 2.15 0.45 5.89 1.32 8.3 1.94 2.41 0.62 6.15 1.66 8.31 2.31 2.15 0.66 5.79 1.85 8.07 2.65 2.28 0.81 5.97 2.16 8.19 3.01 2.22 0.85 6.22 2.46 8.88 3.57 2.67 1.11 7.08 3 9.81 4.21 2.73 1.2 10.56 4.76 17.41 7.9 6.86 3.14 14.8 6.74 17.65 8.01 2.86 1.27 7.37 3.21 10.04 4.32 2.66 1.11 6.4 2.6 8.3 3.31 1.91 0.71 4.76 1.75 6.35 2.31 1.58 0.56 4.91 1.65 7.38 2.42 2.47 0.77 6.62 1.98 9.23 2.69 2.6 0.71 7.27 1.85 10.38 2.54 3.11 0.68 7.42 1.56 9.57 1.95 2.16 0.38 5.33 0.91 7.04 1.16 1.71 0.26 4.77 0.66 6.8 0.91 2.03 0.25 4.63 0.52 5.77 0.6 1.14 0.08 2.2 0.22 2.34 0.3 0.19 0.11 0.36 2.78 0.56 8.58 0.17 4.63 0.3 15.33 0.3 23.76-0.01 8.44-0.13 18.51-0.28 22.38-0.15 3.87-0.37 9.11-0.5 11.65-0.13 2.54-0.45 7.62-0.7 11.3-0.26 3.68-0.67 8.98-0.92 11.77-0.25 2.79-0.72 7.46-1.04 10.38-0.32 2.92-0.79 6.97-1.04 9-0.25 2.03-0.72 5.56-1.04 7.84-0.32 2.29-1.1 7.32-1.74 11.19-0.63 3.87-1.62 9.48-2.19 12.46-0.57 2.98-1.56 7.86-2.19 10.84-0.64 2.98-1.77 7.91-2.51 10.96-0.74 3.04-1.93 7.72-2.65 10.38-0.72 2.67-1.92 6.92-2.67 9.46-0.74 2.54-2.03 6.69-2.84 9.23-0.82 2.54-2.13 6.48-2.92 8.76-0.79 2.29-2.37 6.65-3.52 9.69-1.14 3.05-3.12 8.03-4.38 11.08-1.27 3.04-3.34 7.82-4.6 10.61-1.26 2.79-3.74 7.98-5.5 11.53-1.76 3.56-4.1 8.07-5.2 10.04-1.09 1.97-3.24 5.65-4.77 8.19-1.53 2.54-3.92 6.38-5.31 8.53-1.38 2.16-3.67 5.59-5.08 7.62-1.41 2.03-3.85 5.45-5.43 7.61-1.59 2.16-3.98 5.33-5.32 7.04-1.34 1.71-3.37 4.25-4.52 5.65-1.14 1.39-2.95 3.57-4.03 4.84-1.07 1.27-3.57 4.13-5.54 6.34-1.97 2.22-5.52 6.06-7.88 8.54-2.36 2.48-5.99 6.16-8.07 8.19-2.09 2.03-5.29 5.09-7.13 6.78-1.84 1.7-4.9 4.46-6.81 6.14-1.9 1.67-5.12 4.43-7.15 6.13-2.03 1.69-5.4 4.44-7.5 6.1-2.09 1.67-5.67 4.43-7.95 6.15-2.29 1.71-6.03 4.45-8.31 6.08-2.28 1.63-6.59 4.59-9.57 6.58-2.98 1.99-6.98 4.6-8.89 5.81-1.9 1.2-5.79 3.59-8.65 5.3-2.85 1.71-7.52 4.41-10.38 6-2.85 1.59-6.77 3.73-12.23 6.64l-3.28-1.75c-1.81-0.96-3.96-2.12-4.79-2.58-0.83-0.45-3.47-1.93-5.88-3.29-2.41-1.36-6.25-3.59-8.54-4.96-2.28-1.36-5.97-3.62-8.19-5.02-2.22-1.39-6.22-3.99-8.88-5.76-2.66-1.78-6.4-4.33-8.31-5.66-1.9-1.34-5.48-3.94-7.95-5.77-2.48-1.84-6.11-4.6-8.08-6.13-1.96-1.54-5.39-4.29-7.61-6.12-2.22-1.83-5.54-4.64-7.37-6.23-1.84-1.6-5.27-4.67-7.62-6.82-2.35-2.16-6.23-5.85-8.63-8.19-2.39-2.35-6.4-6.45-8.9-9.12-2.51-2.66-5.48-5.88-6.61-7.15-1.13-1.27-3.25-3.71-4.71-5.42-1.46-1.71-3.6-4.26-4.74-5.65-1.14-1.4-3.33-4.15-4.86-6.11-1.53-1.97-3.92-5.14-5.31-7.04-1.4-1.9-3.9-5.43-5.55-7.84-1.66-2.42-4.2-6.26-5.65-8.54-1.46-2.28-3.63-5.81-4.84-7.84-1.21-2.03-3.15-5.41-4.32-7.5-1.16-2.1-3.5-6.61-5.2-10.04-1.7-3.42-4.13-8.51-5.39-11.3-1.26-2.79-3.33-7.57-4.6-10.61-1.27-3.05-3.3-8.19-4.51-11.42-1.21-3.24-2.79-7.6-3.51-9.69-0.72-2.1-1.92-5.68-2.65-7.96-0.74-2.29-1.92-6.08-2.62-8.42-0.7-2.35-1.89-6.55-2.66-9.35-0.76-2.79-1.9-7.15-2.53-9.68-0.63-2.54-1.72-7.21-2.42-10.39-0.7-3.17-1.75-8.15-2.32-11.07-0.58-2.92-1.56-8.37-2.2-12.11-0.63-3.75-1.51-9.3-1.95-12.34-0.44-3.05-1.07-7.72-1.39-10.38-0.32-2.67-0.84-7.29-1.16-10.27-0.32-2.98-0.79-7.91-1.04-10.96-0.26-3.04-0.62-7.87-0.81-10.73-0.19-2.85-0.45-7.16-0.58-9.57-0.12-2.41-0.35-7.6-0.5-11.54-0.15-3.93-0.28-14.05-0.28-22.49 0-8.43 0.13-19.13 0.29-23.76 0.17-4.63 0.35-8.47 0.42-8.54 0.06-0.06 1.89-0.28 4.07-0.5 2.17-0.21 5.3-0.55 6.95-0.76 1.65-0.21 5.18-0.75 7.85-1.19 2.66-0.45 6.87-1.22 9.34-1.73 2.47-0.51 7.09-1.58 10.27-2.39 3.17-0.8 8-2.14 10.72-2.97 2.73-0.82 6.88-2.17 9.23-2.98 2.35-0.82 5.83-2.08 7.73-2.82 1.9-0.73 5.74-2.29 8.54-3.46 2.79-1.18 6.94-2.97 9.22-3.98 2.29-1.02 9.76-4.42 16.61-7.55 6.86-3.15 14.8-6.75 17.65-8.01 2.86-1.27 7.37-3.21 10.04-4.33 2.66-1.11 7.18-2.91 10.03-3.99 2.86-1.09 7.06-2.6 9.35-3.36 2.28-0.77 5.55-1.8 7.26-2.31 1.72-0.51 4.73-1.34 6.69-1.86 1.97-0.51 5.03-1.24 6.81-1.61 1.78-0.38 4.47-0.9 6-1.16 1.52-0.26 4.27-0.67 6.11-0.92 1.84-0.24 4.8-0.56 6.58-0.7 1.77-0.14 3.8-0.29 4.49-0.34 0.7-0.05 4.54-0.05 8.54 0zm-9.11 28.26c-1.27 0.12-3.92 0.43-5.89 0.69-1.96 0.26-4.97 0.73-6.69 1.04-1.71 0.32-4.77 0.95-6.8 1.4-2.03 0.45-5.66 1.39-8.08 2.08-2.41 0.68-6.25 1.87-8.53 2.64-2.29 0.77-6.49 2.28-9.34 3.37-2.86 1.09-7.69 3.03-10.73 4.33-3.05 1.3-8.39 3.66-11.88 5.25-3.49 1.59-10.08 4.63-14.65 6.75-4.57 2.12-11.11 5.1-14.54 6.63-3.42 1.52-8.04 3.52-10.26 4.44-2.22 0.91-6.01 2.42-8.42 3.34-2.41 0.93-6.52 2.38-9.12 3.25-2.6 0.86-7.06 2.26-9.92 3.1-2.85 0.85-8.2 2.3-11.88 3.23-3.68 0.92-9 2.13-11.82 2.69l-5.13 1c0 13.95 0.1 21.63 0.23 26.07 0.13 4.44 0.39 11.09 0.58 14.77 0.19 3.68 0.5 8.87 0.69 11.53 0.19 2.67 0.61 7.7 0.93 11.19 0.32 3.49 0.89 9.04 1.28 12.34 0.38 3.3 1.1 8.91 1.61 12.46 0.5 3.55 1.34 8.95 1.85 12 0.51 3.04 1.55 8.65 2.3 12.45 0.76 3.81 2.05 9.83 2.87 13.39 0.82 3.55 2.21 9.15 3.1 12.45 0.88 3.3 2.28 8.28 3.11 11.08 0.82 2.79 2.27 7.41 3.21 10.26 0.95 2.86 2.41 7.11 3.26 9.46 0.85 2.35 2.41 6.45 3.46 9.11 1.05 2.67 2.85 7.03 3.99 9.69 1.15 2.67 2.88 6.56 3.86 8.65 0.99 2.1 2.78 5.78 3.98 8.19 1.21 2.41 2.92 5.74 3.8 7.39 0.89 1.65 2.56 4.66 3.71 6.69 1.15 2.03 3.24 5.51 4.62 7.72 1.39 2.23 3.36 5.29 4.38 6.81 1.02 1.52 2.84 4.17 4.05 5.88 1.21 1.71 3.44 4.78 4.96 6.81 1.52 2.03 4.02 5.25 5.54 7.15 1.53 1.9 3.65 4.5 4.72 5.77 1.07 1.27 3.42 3.97 5.22 6 1.8 2.03 5.35 5.87 7.89 8.53 2.54 2.67 6.58 6.72 8.98 9 2.41 2.28 5.87 5.51 7.71 7.17 1.84 1.66 4.85 4.31 6.69 5.88 1.84 1.58 5.63 4.7 8.42 6.93 2.79 2.23 6.94 5.46 9.23 7.17 2.28 1.72 5.81 4.29 7.84 5.73 2.03 1.43 5.98 4.13 8.77 5.99 2.79 1.86 6.32 4.17 7.84 5.13 1.52 0.95 3.91 2.44 5.31 3.29 1.39 0.86 4.38 2.64 6.63 3.96 2.25 1.31 4.2 2.39 4.32 2.39 0.13 0 2.08-1.08 4.33-2.4 2.25-1.31 5.44-3.22 7.09-4.23 1.65-1.01 4.35-2.7 6-3.75 1.65-1.05 5.13-3.34 7.73-5.09 2.6-1.74 6.44-4.39 8.54-5.88 2.09-1.49 5.46-3.95 7.49-5.48 2.03-1.53 5.93-4.56 8.66-6.74 2.72-2.18 6.56-5.35 8.53-7.04 1.97-1.69 4.56-3.95 5.77-5.03 1.2-1.07 4.51-4.15 7.35-6.82 2.84-2.68 7.05-6.84 9.35-9.26 2.3-2.41 5.28-5.57 6.62-7.03 1.34-1.46 3.82-4.26 5.51-6.23 1.69-1.97 4.65-5.55 6.58-7.96 1.93-2.41 4.85-6.2 6.5-8.42 1.64-2.22 3.93-5.39 5.08-7.04 1.15-1.65 3.18-4.66 4.5-6.69 1.33-2.03 3.51-5.51 4.85-7.72 1.34-2.22 3.54-6.07 4.89-8.54 1.36-2.47 3.54-6.63 4.85-9.23 1.31-2.6 3.37-6.86 4.57-9.46 1.21-2.6 2.84-6.23 3.63-8.07 0.79-1.84 1.98-4.7 2.66-6.35 0.68-1.65 2.13-5.38 3.23-8.3 1.1-2.92 2.93-8.06 4.07-11.42 1.13-3.36 2.78-8.5 3.65-11.42 0.88-2.92 2.24-7.64 3.01-10.5 0.78-2.85 2.02-7.73 2.76-10.84 0.74-3.11 1.88-8.09 2.51-11.07 0.64-2.98 1.64-8.02 2.22-11.19 0.58-3.17 1.32-7.38 1.64-9.35 0.32-1.96 0.88-5.65 1.25-8.19 0.37-2.53 0.98-7.1 1.36-10.15 0.38-3.04 0.9-7.61 1.16-10.15 0.25-2.53 0.62-6.38 0.81-8.53 0.19-2.16 0.51-6.15 0.7-8.88 0.19-2.73 0.5-7.87 0.69-11.42 0.19-3.56 0.45-11.08 0.59-16.73 0.14-5.65 0.22-13.32 0.18-17.06l-0.07-6.8c-1.08-0.27-3.31-0.72-5.66-1.18-2.34-0.46-6.34-1.33-8.88-1.95-2.54-0.61-6.84-1.74-9.57-2.49-2.73-0.77-7.3-2.12-10.15-3.02-2.86-0.89-6.9-2.24-9-2.99-2.09-0.75-5.52-2.04-7.61-2.87-2.1-0.82-5.47-2.19-7.5-3.05-2.03-0.86-6.18-2.68-9.23-4.04-3.04-1.37-7.66-3.47-10.26-4.68-2.61-1.2-7.59-3.5-11.08-5.12-3.49-1.62-8.21-3.77-10.49-4.79-2.29-1.01-5.71-2.52-7.62-3.34-1.9-0.82-5.28-2.21-7.5-3.1-2.22-0.88-6.32-2.42-9.11-3.42-2.79-0.99-6.78-2.32-8.88-2.96-2.09-0.63-5.21-1.52-6.92-1.97-1.71-0.45-4.52-1.13-6.23-1.51-1.71-0.37-5.04-1-7.38-1.38-2.35-0.39-5.67-0.87-7.38-1.08-1.88-0.22-5.55-0.4-9.23-0.45-3.37-0.04-7.15 0.02-8.42 0.14z"/>
</svg>